<svg id="a48ce42d-f803-4522-8d36-f7f1d6fdbc60" data-name="200520" xmlns="http://www.w3.org/2000/svg" xmlns:xlink="http://www.w3.org/1999/xlink" viewBox="0 0 206.88 54.83"><defs><linearGradient id="ac8aab1a-0c4b-416f-9956-c85d7d97f2cd" x1="636.12" y1="179.61" x2="636.12" y2="168.05" gradientUnits="userSpaceOnUse"><stop offset="0" stop-color="#749bc2" stop-opacity="0"/><stop offset="0.04" stop-color="#6b96be" stop-opacity="0.14"/><stop offset="0.19" stop-color="#4f84b2" stop-opacity="0.6"/><stop offset="0.3" stop-color="#3d79aa" stop-opacity="0.89"/><stop offset="0.35" stop-color="#3675a7"/></linearGradient><clipPath id="ea9eda9e-5ae5-43cd-8759-55ea716b2713" transform="translate(-468.1 -150.3)"><path id="f94f28f3-7960-48ac-8f83-2aa4e8bce8b7" data-name="SVGID" d="M546.12,158.67l-6.54-6.13H468.1v12.25h16.15a26.17,26.17,0,0,0,12.48,38.78l4.08-11.85a13.41,13.41,0,1,1,9.65-.06l-4.21,8,8.13,3.88a26.16,26.16,0,0,0,12.46-38.76h12.74Z" style="fill:none"/></clipPath></defs><rect x="90.95" y="0.68" width="2.03" height="22.52" style="fill:#bf9d5a"/><polygon points="98.65 12.46 108.55 12.46 108.55 10.57 98.65 10.57 98.65 2.56 109.21 2.56 109.21 0.68 96.63 0.68 96.63 23.19 98.65 23.19 98.65 12.46" style="fill:#bf9d5a"/><path d="M576,173.49h2.11l2.53-7.66H589l2.56,7.66h2.24L585.92,151h-2.28l0,.14c-1.6,4.81-3.15,9.37-4.65,13.78l-2.82,8.33Zm5.25-9.58c.45-1.32.85-2.53,1.23-3.63,1-2.89,1.72-5.06,2.21-6.91.27.9.73,2.2,1.36,4s1.36,3.85,2.28,6.56Z" transform="translate(-468.1 -150.3)" style="fill:#bf9d5a"/><path d="M602.56,173.81c5.75,0,7.46-4.13,8-6.59l.05-.24h-2.08l0,.15c-.93,3.3-2.72,4.77-5.82,4.77-6.08,0-6.74-6.92-6.74-9.89,0-7,3.48-9.44,6.74-9.44s5,1.64,5.69,4.87l0,.16h2.11l0-.23c-.63-4.33-3.38-6.72-7.74-6.72-6.58,0-8.92,6.11-8.92,11.33C593.77,169.72,596.81,173.81,602.56,173.81Z" transform="translate(-468.1 -150.3)" style="fill:#bf9d5a"/><path d="M628.35,171.36H616.88c.52-1.47,1.81-3.71,5-6.43l.18-.16c3.69-3.19,5.55-4.79,5.55-8.33,0-4.53-3.34-6.14-6.2-6.14-3.91,0-6.33,2.41-6.66,6.63v.21h2l0-.17c.42-3.23,1.89-4.74,4.6-4.74,3.06,0,4.14,2.23,4.14,4.31,0,2.73-1.26,3.82-4.32,6.43l-.58.5c-5.68,4.84-6.12,8.47-6.12,9.47v.36H628Z" transform="translate(-468.1 -150.3)" style="fill:#bf9d5a"/><path d="M654.38,164.93l.19-.16c3.69-3.19,5.54-4.79,5.54-8.33,0-4.53-3.34-6.14-6.2-6.14-3.91,0-6.33,2.41-6.66,6.63v.21h2l0-.17c.43-3.23,1.89-4.74,4.6-4.74,3.06,0,4.15,2.23,4.15,4.31,0,2.73-1.27,3.82-4.33,6.43l-.58.5c-5.68,4.84-6.12,8.47-6.12,9.47v.36h13.57l.34-1.94H649.4C649.92,169.89,651.21,167.65,654.38,164.93Z" transform="translate(-468.1 -150.3)" style="fill:#bf9d5a"/><path d="M667.7,173.6c3.46,0,7.15-1.86,7.15-7.09a5.83,5.83,0,0,0-3.69-5.68,5.15,5.15,0,0,0,2.76-4.79c0-3.54-2.31-5.74-6-5.74-5.06,0-6.2,4.07-6.45,5.82l0,.23h2l0-.16c.57-2.71,2-4,4.45-4s4,1.44,4,3.85c0,2.68-1.5,4-4.45,4H665.8v1.81h1.57c3.54,0,5.33,1.59,5.33,4.73,0,1.91-.64,5.1-4.9,5.1-3.3,0-4.49-2.26-4.91-4.16l0-.15h-2l0,.22A6.35,6.35,0,0,0,667.7,173.6Z" transform="translate(-468.1 -150.3)" style="fill:#bf9d5a"/><path d="M569.21,181.28c-.29.82-.59,1.7-.9,2.59-1.26,3.63-2.56,7.38-3.06,9.08-.51-1.81-2-5.94-3.38-9.94l-.63-1.8h-2.48l5.21,14a1.37,1.37,0,0,1,.09.48v9.16h2.28v-9.06a1.42,1.42,0,0,1,.08-.52l5.17-13.91,0-.14h-2.41Z" transform="translate(-468.1 -150.3)" style="fill:#bf9d5a"/><path d="M578.23,180.92c-3.77,0-5.77,2-5.77,5.85v12.39c0,4.07,1.79,6,5.62,6s5.79-2,5.79-6v-12.4C583.87,183,581.87,180.92,578.23,180.92Zm-3.44,5.88c0-2.84,1-4.1,3.36-4.1s3.39,1.38,3.39,4.12v12.24c0,3-1,4.3-3.36,4.3s-3.39-1.36-3.39-4.15Z" transform="translate(-468.1 -150.3)" style="fill:#bf9d5a"/><path d="M598.52,181.36l.09-.15h-2.47l0,0c-1.9,3.41-5.2,9.14-6.6,11.55v-11.6h-2.27v23.63h2.27v-8.91l2-3.17,5.21,12,0,.06h2.47L593,190.75Z" transform="translate(-468.1 -150.3)" style="fill:#bf9d5a"/><path d="M605.11,180.92c-3.78,0-5.77,2-5.77,5.85v12.39c0,4.07,1.78,6,5.61,6s5.8-2,5.8-6v-12.4C610.75,183,608.75,180.92,605.11,180.92Zm-3.44,5.88c0-2.84,1-4.1,3.35-4.1s3.4,1.38,3.4,4.12v12.24c0,3-1,4.3-3.36,4.3s-3.39-1.36-3.39-4.15Z" transform="translate(-468.1 -150.3)" style="fill:#bf9d5a"/><polygon points="154.82 40.95 148.3 40.95 148.3 30.92 146.03 30.92 146.03 54.54 148.3 54.54 148.3 42.73 154.82 42.73 154.82 54.54 157.09 54.54 157.09 30.92 154.82 30.92 154.82 40.95" style="fill:#bf9d5a"/><path d="M635.8,181.21h-3.16l-4.72,23.51,0,.12h2.3l1.6-8.31h4.89l1.68,8.23,0,.08h2.38l-4.94-23.55Zm.54,13.54h-4.2c.22-1.2.45-2.44.69-3.64.61-3.22,1.2-6.27,1.36-7.81C634.47,185.33,635.2,189.17,636.34,194.75Z" transform="translate(-468.1 -150.3)" style="fill:#bf9d5a"/><path d="M656.12,181.29c-1.63,6.32-4.16,16.47-4.79,19.82-.62-3.73-3.35-15-4.53-19.82l0-.08h-3.24v23.63h2.21V195c0-3.72-.14-8.59-.23-11.25.64,3.43,2.15,10.2,3.38,15.72.45,2,.86,3.84,1.18,5.33l0,.08h2.3l0-.08c1.73-7.16,4-16.57,4.84-20.87-.09,2.7-.17,6.58-.17,10.34v10.61h2.28V181.21h-3.23Z" transform="translate(-468.1 -150.3)" style="fill:#bf9d5a"/><path d="M670,181.29v-.08h-3.16l-4.73,23.51,0,.12h2.3l1.6-8.31h4.89l1.68,8.23,0,.08H675Zm.52,13.46h-4.2c.22-1.21.46-2.45.69-3.65.62-3.21,1.2-6.26,1.37-7.79C668.69,185.33,669.41,189.18,670.55,194.75Z" transform="translate(-468.1 -150.3)" style="fill:#bf9d5a"/><circle cx="169.59" cy="11.92" r="9.07" style="fill:#e60013"/><path d="M604.18,179.61c12.72-1.36,21.87-4.35,26.48-11.56h3.58c7.09,9.23,20.46,10.07,33.82,11.56Z" transform="translate(-468.1 -150.3)" style="fill:url(#ac8aab1a-0c4b-416f-9956-c85d7d97f2cd)"/><g style="clip-path:url(#ea9eda9e-5ae5-43cd-8759-55ea716b2713)"><path d="M524.74,162.11h21.38v-1.58H523.25c.52.51,1,1,1.49,1.58Z" transform="translate(-468.1 -150.3)" style="fill:#e60013"/><path d="M546.12,164.77v-1.58H525.61c.4.51.78,1,1.14,1.58Z" transform="translate(-468.1 -150.3)" style="fill:#e60013"/><path d="M507.1,153.31l.4,0c.41,0,.82.07,1.23.13l.32,0a24.28,24.28,0,0,1,3.12.64h34v-1.58H505.54v.69C506.07,153.26,506.59,153.28,507.1,153.31Z" transform="translate(-468.1 -150.3)" style="fill:#e60013"/><path d="M516.89,156c.51.27,1,.55,1.52.84h27.71v-1.58H515.28c.54.23,1.07.47,1.59.74Z" transform="translate(-468.1 -150.3)" style="fill:#e60013"/><path d="M521.1,158.64l1,.82h24v-1.58h-26c.35.24.69.5,1,.76Z" transform="translate(-468.1 -150.3)" style="fill:#e60013"/><path d="M481.53,179.18a24.24,24.24,0,0,1,24-24.41v-1.51c-.52,0-1,0-1.56.05l-.4,0c-.41,0-.82.07-1.22.13l-.33,0a25,25,0,0,0-3.12.64h0a25.93,25.93,0,0,0-3.11,1.07c-.54.23-1.07.47-1.59.74h0c-.52.27-1,.55-1.52.84s-1.12.7-1.66,1.08c-.35.24-.69.5-1,.76h0c-.34.27-.67.54-1,.82s-.79.7-1.16,1.07-1,1-1.49,1.58c-.3.35-.6.71-.88,1.08h0c-.4.51-.78,1-1.14,1.58A26.09,26.09,0,0,0,480,179.18a25.76,25.76,0,0,0,25.53,25.92v-1.52A24.24,24.24,0,0,1,481.53,179.18Z" transform="translate(-468.1 -150.3)" style="fill:#e60013"/><path d="M484.15,179.18a21.57,21.57,0,0,1,21.39-21.69V156a23.2,23.2,0,0,0,0,46.4v-1.52A21.57,21.57,0,0,1,484.15,179.18Z" transform="translate(-468.1 -150.3)" style="fill:#e60013"/><path d="M486.77,179.18a18.89,18.89,0,0,1,18.77-19v-1.52a20.49,20.49,0,0,0,0,41v-1.52A18.88,18.88,0,0,1,486.77,179.18Z" transform="translate(-468.1 -150.3)" style="fill:#e60013"/><path d="M489.39,179.18a16.22,16.22,0,0,1,16.15-16.25v-1.52a17.77,17.77,0,0,0,0,35.53v-1.51A16.22,16.22,0,0,1,489.39,179.18Z" transform="translate(-468.1 -150.3)" style="fill:#e60013"/><path d="M492,179.18a13.55,13.55,0,0,1,13.53-13.53v-1.52a15,15,0,0,0,0,30.09v-1.51A13.55,13.55,0,0,1,492,179.18Z" transform="translate(-468.1 -150.3)" style="fill:#e60013"/><path d="M498.91,154.15a25,25,0,0,1,3.12-.64,25,25,0,0,0-3.12.64Z" transform="translate(-468.1 -150.3)"/><path d="M512.17,154.15a24.64,24.64,0,0,0-3.12-.64l-.32,0c-.41-.06-.82-.1-1.23-.13l-.4,0c-.51,0-1-.05-1.56-.05v1.51a24.41,24.41,0,0,1,0,48.81v1.52a26,26,0,0,0,21.21-40.33c-.36-.54-.74-1.07-1.14-1.58s-.57-.73-.87-1.08c-.48-.54-1-1.07-1.49-1.58s-.77-.73-1.16-1.07l-1-.82h0c-.33-.26-.67-.52-1-.76-.54-.38-1.09-.74-1.66-1.08s-1-.57-1.52-.84h0c-.52-.27-1-.51-1.59-.74a24.77,24.77,0,0,0-3.11-1.07Z" transform="translate(-468.1 -150.3)" style="fill:#dbd6cc"/><path d="M528.45,179.18A23.08,23.08,0,0,0,505.54,156v1.51a21.69,21.69,0,0,1,0,43.37v1.52A23.09,23.09,0,0,0,528.45,179.18Z" transform="translate(-468.1 -150.3)" style="fill:#dbd6cc"/><path d="M525.83,179.18a20.41,20.41,0,0,0-20.29-20.49v1.52a19,19,0,0,1,0,37.93v1.52A20.41,20.41,0,0,0,525.83,179.18Z" transform="translate(-468.1 -150.3)" style="fill:#dbd6cc"/><path d="M523.21,179.18a17.74,17.74,0,0,0-17.67-17.77v1.52a16.25,16.25,0,0,1,0,32.5v1.51A17.74,17.74,0,0,0,523.21,179.18Z" transform="translate(-468.1 -150.3)" style="fill:#dbd6cc"/><path d="M520.59,179.18a15.07,15.07,0,0,0-15.05-15.05v1.52a13.53,13.53,0,1,1,0,27.06v1.51A15.06,15.06,0,0,0,520.59,179.18Z" transform="translate(-468.1 -150.3)" style="fill:#dbd6cc"/><path d="M468.1,154.15h30.81a25,25,0,0,1,3.12-.64l.33,0c.4-.06.81-.1,1.22-.13l.4,0c.52,0,1-.05,1.56-.05v-.69H468.1Z" transform="translate(-468.1 -150.3)" style="fill:#dbd6cc"/><path d="M468.1,155.22v1.58h24.58c.49-.29,1-.57,1.52-.84h0c.52-.27,1.05-.51,1.59-.74H468.1Z" transform="translate(-468.1 -150.3)" style="fill:#dbd6cc"/><path d="M468.1,157.88v1.58H489c.32-.28.65-.55,1-.82h0c.34-.26.68-.52,1-.76H468.1Z" transform="translate(-468.1 -150.3)" style="fill:#dbd6cc"/><path d="M468.1,160.53v1.58h18.25c.47-.54,1-1.07,1.49-1.58H468.1Z" transform="translate(-468.1 -150.3)" style="fill:#dbd6cc"/><path d="M468.1,164.77h16.23c.36-.54.74-1.07,1.14-1.58H468.1Z" transform="translate(-468.1 -150.3)" style="fill:#dbd6cc"/></g></svg>