<svg id="b7d260d5-6bfb-4f07-81d8-68e3abeaa3b7" data-name="Ebene 1" xmlns="http://www.w3.org/2000/svg" viewBox="0 0 737.7 331.1"><rect width="221" height="220.4" style="fill:#f9b03e"/><polygon points="711.5 279 711.5 247.2 716 247.2 732.7 272.1 732.7 247.2 736.5 247.2 736.5 279 732.4 279 715.6 254.1 715.6 279 711.5 279" style="fill:#214593"/><rect x="1.3" y="247.2" width="4.1" height="31.5" style="fill:#214593"/><polygon points="17 279 17 247.2 21.4 247.2 37.8 272.1 37.8 247.2 41.9 247.2 41.9 279 37.8 279 21.1 254.1 21.1 279 17 279" style="fill:#214593"/><polygon points="61.5 279 61.5 250.9 51.1 250.9 51.1 247.2 76 247.2 76 250.9 65.6 250.9 65.6 279 61.5 279" style="fill:#214593"/><polygon points="84.8 279 84.8 247.2 107.8 247.2 107.8 250.9 88.9 250.9 88.9 260.7 106.6 260.7 106.6 264.5 88.9 264.5 88.9 275.2 108.5 275.2 108.5 279 84.8 279" style="fill:#214593"/><path d="M137.4,266.3h8.8a14.9,14.9,0,0,0,4.4-.6,4.58,4.58,0,0,0,2.5-1.9,5.09,5.09,0,0,0-.7-6.6,7.43,7.43,0,0,0-5-1.6H137.3v10.7ZM132.9,284V252.5h13.9a16.45,16.45,0,0,1,6.3.9,6.77,6.77,0,0,1,3.5,3.2,9.56,9.56,0,0,1,1.3,4.7,7.6,7.6,0,0,1-2.2,5.7,10.56,10.56,0,0,1-6.6,2.8,12,12,0,0,1,2.5,1.6,23,23,0,0,1,3.5,4.1l5.4,8.5H155l-4.1-6.6a28.09,28.09,0,0,0-3.2-4.4,15.21,15.21,0,0,0-2.2-2.2c-.6-.3-1.3-.6-1.9-.9h-6.9V284Z" transform="translate(-14.4 -5)" style="fill:#214593"/><polygon points="154.8 279 154.8 247.2 159.2 247.2 175.6 272.1 175.6 247.2 179.7 247.2 179.7 279 175.3 279 158.9 254.1 158.9 279 154.8 279" style="fill:#214593"/><path d="M211.1,271.1h10.7l-3.2-8.8a42.3,42.3,0,0,1-2.2-6.6,33.32,33.32,0,0,1-1.6,6ZM202,284l12.3-31.5h4.4L231.6,284h-4.7l-3.8-9.5H209.9l-3.5,9.5Z" transform="translate(-14.4 -5)" style="fill:#214593"/><polygon points="229.5 279 229.5 250.9 219.1 250.9 219.1 247.2 244.3 247.2 244.3 250.9 233.9 250.9 233.9 279 229.5 279" style="fill:#214593"/><rect x="253.8" y="247.2" width="4.1" height="31.5" style="fill:#214593"/><path d="M287.4,268.6c0,3.8.9,6.9,3.2,9.1a9.84,9.84,0,0,0,7.6,3.2,9.47,9.47,0,0,0,7.9-3.5,14.26,14.26,0,0,0,3.2-9.5,13.93,13.93,0,0,0-1.3-6.6,9.73,9.73,0,0,0-3.8-4.4,11.53,11.53,0,0,0-5.7-1.6,9.64,9.64,0,0,0-7.6,3.2c-2.5,1.9-3.5,5.3-3.5,10.1m-4.4,0c0-5.4,1.3-9.5,4.1-12.3a14.75,14.75,0,0,1,11-4.4,13.49,13.49,0,0,1,7.9,2.2,15,15,0,0,1,5.4,6,20,20,0,0,1,0,17,14.17,14.17,0,0,1-5.4,5.7,15.32,15.32,0,0,1-7.6,1.9,13.49,13.49,0,0,1-7.9-2.2,17.33,17.33,0,0,1-5.4-6,15.12,15.12,0,0,1-2.1-7.9" transform="translate(-14.4 -5)" style="fill:#214593"/><polygon points="308.6 279 308.6 247.2 312.7 247.2 329.5 272.1 329.5 247.2 333.6 247.2 333.6 279 329.1 279 312.4 254.1 312.4 279 308.6 279" style="fill:#214593"/><path d="M365,271.1h10.7l-3.2-8.8a42.3,42.3,0,0,1-2.2-6.6,33.32,33.32,0,0,1-1.6,6ZM355.8,284l12-31.5h4.4L385.1,284h-4.7l-3.8-9.5H363.4l-3.5,9.5Z" transform="translate(-14.4 -5)" style="fill:#214593"/><polygon points="378.6 279 378.6 247.2 382.7 247.2 382.7 275.2 398.2 275.2 398.2 279 378.6 279" style="fill:#214593"/><polygon points="422.8 279 422.8 247.2 444.2 247.2 444.2 250.9 427.2 250.9 427.2 260.7 442 260.7 442 264.5 427.2 264.5 427.2 279 422.8 279" style="fill:#214593"/><polygon points="454 279 454 247.2 477 247.2 477 250.9 458.4 250.9 458.4 260.7 475.7 260.7 475.7 264.5 458.4 264.5 458.4 275.2 477.6 275.2 477.6 279 454 279" style="fill:#214593"/><path d="M506.5,280.2h6.6a19.94,19.94,0,0,0,5-.6,5.08,5.08,0,0,0,2.8-1.6,7.33,7.33,0,0,0,2.2-4.1,18,18,0,0,0,.9-6c0-3.2-.6-6-1.6-7.6a7.33,7.33,0,0,0-4.1-3.5,21.69,21.69,0,0,0-5.4-.6h-6.6v24Zm-4.4,3.8V252.5h11a29.29,29.29,0,0,1,5.7.3,10.81,10.81,0,0,1,4.7,2.2,14.57,14.57,0,0,1,3.8,5.4,22.7,22.7,0,0,1,.4,13.9,15.81,15.81,0,0,1-2.2,4.7,10.56,10.56,0,0,1-2.8,2.8,10.35,10.35,0,0,1-3.8,1.6,26.32,26.32,0,0,1-5,.6Z" transform="translate(-14.4 -5)" style="fill:#214593"/><polygon points="524.3 279 524.3 247.2 547 247.2 547 250.9 528.4 250.9 528.4 260.7 545.7 260.7 545.7 264.5 528.4 264.5 528.4 275.2 547.6 275.2 547.6 279 524.3 279" style="fill:#214593"/><path d="M576.5,266.3h9.1a14.9,14.9,0,0,0,4.4-.6,4.58,4.58,0,0,0,2.5-1.9,5.41,5.41,0,0,0,.9-2.8,5.12,5.12,0,0,0-1.6-3.8,7.43,7.43,0,0,0-5-1.6H576.7v10.7ZM572.4,284V252.5h13.9a16.45,16.45,0,0,1,6.3.9,6.77,6.77,0,0,1,3.5,3.2,9.56,9.56,0,0,1,1.3,4.7,7.6,7.6,0,0,1-2.2,5.7,10.56,10.56,0,0,1-6.6,2.8,6.34,6.34,0,0,1,2.5,1.6,23,23,0,0,1,3.5,4.1L600,284h-5.4l-4.1-6.6a28.09,28.09,0,0,0-3.2-4.4l-2.2-2.2c-.6-.3-1.3-.6-1.9-.9h-6.9V284Z" transform="translate(-14.4 -5)" style="fill:#214593"/><path d="M614.3,271.1H625l-3.2-8.8a42.3,42.3,0,0,1-2.2-6.6,33.32,33.32,0,0,1-1.6,6ZM605.2,284l12-31.5h4.4L634.5,284h-4.7l-3.8-9.5H612.8l-3.5,9.5Z" transform="translate(-14.4 -5)" style="fill:#214593"/><polygon points="632.7 279 632.7 250.9 622.3 250.9 622.3 247.2 647.2 247.2 647.2 250.9 636.8 250.9 636.8 279 632.7 279" style="fill:#214593"/><rect x="657" y="247.2" width="4.1" height="31.5" style="fill:#214593"/><path d="M690.3,268.6c0,3.8.9,6.9,3.2,9.1a9.84,9.84,0,0,0,7.6,3.2,9.47,9.47,0,0,0,7.9-3.5,14.26,14.26,0,0,0,3.2-9.5,13.93,13.93,0,0,0-1.3-6.6,9.73,9.73,0,0,0-3.8-4.4,11.53,11.53,0,0,0-5.7-1.6,10.07,10.07,0,0,0-7.6,3.2c-2.2,1.9-3.5,5.3-3.5,10.1m-4.1,0c0-5.4,1.3-9.5,4.1-12.3a14.75,14.75,0,0,1,11-4.4,13.49,13.49,0,0,1,7.9,2.2,15,15,0,0,1,5.4,6,20,20,0,0,1,0,17,14.17,14.17,0,0,1-5.4,5.7,16.15,16.15,0,0,1-7.6,1.9,13.49,13.49,0,0,1-7.9-2.2,17.33,17.33,0,0,1-5.4-6,16.12,16.12,0,0,1-2.1-7.9" transform="translate(-14.4 -5)" style="fill:#214593"/><path d="M19.1,319.9c0,3.8.9,6.9,3.2,9.1a10.29,10.29,0,0,0,7.6,3.2,10.75,10.75,0,0,0,7.9-3.5,14.26,14.26,0,0,0,3.2-9.5,13.93,13.93,0,0,0-1.3-6.6,9.73,9.73,0,0,0-3.8-4.4,11.53,11.53,0,0,0-5.7-1.6,10.07,10.07,0,0,0-7.6,3.2c-2.2,2.3-3.5,5.4-3.5,10.1m-4.1,0c0-5.4,1.3-9.5,4.1-12.3a14.75,14.75,0,0,1,11-4.4,13.49,13.49,0,0,1,7.9,2.2,16.39,16.39,0,0,1,5.4,5.7,18.32,18.32,0,0,1,1.9,8.5,18,18,0,0,1-1.9,8.5,14.17,14.17,0,0,1-5.4,5.7,16.15,16.15,0,0,1-7.6,1.9,13.49,13.49,0,0,1-7.9-2.2,17.33,17.33,0,0,1-5.4-6,13.77,13.77,0,0,1-2.1-7.6" transform="translate(-14.4 -5)" style="fill:#214593"/><polygon points="40.7 330.4 40.7 298.9 62.1 298.9 62.1 302.6 45.1 302.6 45.1 312.4 59.9 312.4 59.9 316.2 45.1 316.2 45.1 330.4 40.7 330.4" style="fill:#214593"/><path d="M106.2,322.5h10.7l-3.2-8.8a42.3,42.3,0,0,1-2.2-6.6,33.32,33.32,0,0,1-1.6,6ZM97,335.4l12-31.5h4.4l12.9,31.5h-4.7l-3.8-9.5H104.6l-3.5,9.5Z" transform="translate(-14.4 -5)" style="fill:#214593"/><path d="M155.3,303.9h4.1v18.3a25.85,25.85,0,0,1-.9,7.6,7.19,7.19,0,0,1-3.8,4.4,12.8,12.8,0,0,1-7.3,1.9,16.07,16.07,0,0,1-7.3-1.6,9.22,9.22,0,0,1-4.1-4.4c-.9-1.9-1.3-4.4-1.3-7.9V303.9h4.1v18.3a26.26,26.26,0,0,0,.6,6,8.48,8.48,0,0,0,2.5,3.2,10.49,10.49,0,0,0,4.4.9c3.2,0,5.4-.6,6.6-2.2,1.3-1.3,1.9-4.1,1.9-8.2v-18Z" transform="translate(-14.4 -5)" style="fill:#214593"/><polygon points="164.3 330.4 164.3 302.6 153.9 302.6 153.9 298.9 179.1 298.9 179.1 302.6 168.7 302.6 168.7 330.4 164.3 330.4" style="fill:#214593"/><path d="M204.2,319.9c0,3.8.9,6.9,3.2,9.1a10.29,10.29,0,0,0,7.6,3.2,10.75,10.75,0,0,0,7.9-3.5,14.26,14.26,0,0,0,3.2-9.5,13.93,13.93,0,0,0-1.3-6.6,9.73,9.73,0,0,0-3.8-4.4,11.53,11.53,0,0,0-5.7-1.6,10.07,10.07,0,0,0-7.6,3.2c-2.2,2.3-3.5,5.4-3.5,10.1m-4.1,0c0-5.4,1.3-9.5,4.1-12.3a14.75,14.75,0,0,1,11-4.4,13.49,13.49,0,0,1,7.9,2.2,16.39,16.39,0,0,1,5.4,5.7,18.32,18.32,0,0,1,1.9,8.5,18,18,0,0,1-1.9,8.5,14.17,14.17,0,0,1-5.4,5.7,16.15,16.15,0,0,1-7.6,1.9,13.49,13.49,0,0,1-7.9-2.2,17.33,17.33,0,0,1-5.4-6c-1.8-2.2-2.1-4.7-2.1-7.6" transform="translate(-14.4 -5)" style="fill:#214593"/><path d="M239.8,335.4V303.9h6.3l7.6,22.4c.6,2.2,1.3,3.8,1.6,4.7.3-1.3.9-2.8,1.6-5l7.6-22.1h5.7v31.5H266V308.9l-9.1,26.5h-3.8L244,308.6v26.8Z" transform="translate(-14.4 -5)" style="fill:#214593"/><path d="M286.8,322.5h10.7l-3.2-8.8a42.3,42.3,0,0,1-2.2-6.6,33.32,33.32,0,0,1-1.6,6Zm-9.1,12.9,12-31.5h4.4L307,335.4h-4.7l-3.8-9.5H285.3l-3.5,9.5Z" transform="translate(-14.4 -5)" style="fill:#214593"/><polygon points="305.2 330.4 305.2 302.6 294.8 302.6 294.8 298.9 320 298.9 320 302.6 309.6 302.6 309.6 330.4 305.2 330.4" style="fill:#214593"/><rect x="329.5" y="298.9" width="4.1" height="31.5" style="fill:#214593"/><path d="M382.3,324.4l4.1.9a14.87,14.87,0,0,1-4.7,7.9,12.19,12.19,0,0,1-8.2,2.8c-3.5,0-6.3-.6-8.2-2.2a11.31,11.31,0,0,1-4.7-6,18.2,18.2,0,0,1-1.6-8.5,17.49,17.49,0,0,1,1.9-8.5,14.17,14.17,0,0,1,5.4-5.7,14.55,14.55,0,0,1,7.6-1.9,12.85,12.85,0,0,1,7.9,2.5,10.75,10.75,0,0,1,4.4,6.9l-4.1.9a9.27,9.27,0,0,0-3.2-5,9.6,9.6,0,0,0-5.4-1.6,9,9,0,0,0-6,1.9,10.8,10.8,0,0,0-3.5,4.7,20.79,20.79,0,0,0-.9,6,15.2,15.2,0,0,0,1.3,6.9,7.19,7.19,0,0,0,3.8,4.4,11.33,11.33,0,0,0,5.4,1.6,9.56,9.56,0,0,0,6-1.9,16.47,16.47,0,0,0,2.7-6.1" transform="translate(-14.4 -5)" style="fill:#214593"/><path d="M435.3,324.4l4.1.9a14.87,14.87,0,0,1-4.7,7.9,12.19,12.19,0,0,1-8.2,2.8c-3.5,0-6.3-.6-8.2-2.2a11.31,11.31,0,0,1-4.7-6,18.2,18.2,0,0,1-1.6-8.5,17.49,17.49,0,0,1,1.9-8.5,14.17,14.17,0,0,1,5.4-5.7,14.55,14.55,0,0,1,7.6-1.9,12.85,12.85,0,0,1,7.9,2.5,10.75,10.75,0,0,1,4.4,6.9l-4.1.9a9.27,9.27,0,0,0-3.2-5,9.6,9.6,0,0,0-5.4-1.6,9,9,0,0,0-6,1.9,10.8,10.8,0,0,0-3.5,4.7,20.79,20.79,0,0,0-.9,6,15.2,15.2,0,0,0,1.3,6.9c.9,1.9,1.9,3.5,3.8,4.4a11.33,11.33,0,0,0,5.4,1.6,9.56,9.56,0,0,0,6-1.9,18.28,18.28,0,0,0,2.7-6.1" transform="translate(-14.4 -5)" style="fill:#214593"/><path d="M452,319.9c0,3.8.9,6.9,3.2,9.1a9.84,9.84,0,0,0,7.6,3.2,10.75,10.75,0,0,0,7.9-3.5,14.26,14.26,0,0,0,3.2-9.5,13.93,13.93,0,0,0-1.3-6.6,9.73,9.73,0,0,0-3.8-4.4,11.53,11.53,0,0,0-5.7-1.6,10.07,10.07,0,0,0-7.6,3.2c-2.3,2.3-3.5,5.4-3.5,10.1m-4.1,0c0-5.4,1.3-9.5,4.1-12.3a14.75,14.75,0,0,1,11-4.4,13.49,13.49,0,0,1,7.9,2.2,16.39,16.39,0,0,1,5.4,5.7,18.32,18.32,0,0,1,1.9,8.5,18,18,0,0,1-1.9,8.5,14.17,14.17,0,0,1-5.4,5.7,16.15,16.15,0,0,1-7.6,1.9,13.49,13.49,0,0,1-7.9-2.2,17.33,17.33,0,0,1-5.4-6,13,13,0,0,1-2.1-7.6" transform="translate(-14.4 -5)" style="fill:#214593"/><polygon points="473.5 330.4 473.5 298.9 477.6 298.9 494.3 323.8 494.3 298.9 498.1 298.9 498.1 330.4 494 330.4 477.3 305.5 477.3 330.4 473.5 330.4" style="fill:#214593"/><polygon points="517.7 330.4 517.7 302.6 507.3 302.6 507.3 298.9 532.5 298.9 532.5 302.6 521.8 302.6 521.8 330.4 517.7 330.4" style="fill:#214593"/><path d="M559.8,317.7h9.1a14.9,14.9,0,0,0,4.4-.6,4.58,4.58,0,0,0,2.5-1.9,5.09,5.09,0,0,0-.7-6.6,7.43,7.43,0,0,0-5-1.6H560v10.7Zm-4.4,17.7V303.9h13.9a16.45,16.45,0,0,1,6.3.9,6.77,6.77,0,0,1,3.5,3.2,9.56,9.56,0,0,1,1.3,4.7,7.6,7.6,0,0,1-2.2,5.7,10.56,10.56,0,0,1-6.6,2.8,12,12,0,0,1,2.5,1.6,23,23,0,0,1,3.5,4.1l5.4,8.5h-5.4l-4.1-6.6a28.09,28.09,0,0,0-3.2-4.4,15.21,15.21,0,0,0-2.2-2.2c-.6-.3-1.3-.6-1.9-.9h-6.9v13.9h-3.8v.2Z" transform="translate(-14.4 -5)" style="fill:#214593"/><path d="M594.8,319.9c0,3.8.9,6.9,3.2,9.1a9.84,9.84,0,0,0,7.6,3.2,10.75,10.75,0,0,0,7.9-3.5,14.26,14.26,0,0,0,3.2-9.5,13.93,13.93,0,0,0-1.3-6.6,9.73,9.73,0,0,0-3.8-4.4,11.53,11.53,0,0,0-5.7-1.6,9.64,9.64,0,0,0-7.6,3.2c-2.6,2.3-3.5,5.4-3.5,10.1m-4.4,0c0-5.4,1.3-9.5,4.1-12.3a14.75,14.75,0,0,1,11-4.4,13.49,13.49,0,0,1,7.9,2.2,16.39,16.39,0,0,1,5.4,5.7,18.32,18.32,0,0,1,1.9,8.5,18,18,0,0,1-1.9,8.5,14.17,14.17,0,0,1-5.4,5.7,16.15,16.15,0,0,1-7.6,1.9,13.49,13.49,0,0,1-7.9-2.2,17.33,17.33,0,0,1-5.4-6,13,13,0,0,1-2.1-7.6" transform="translate(-14.4 -5)" style="fill:#214593"/><polygon points="615.7 330.4 615.7 298.9 620.1 298.9 620.1 326.6 635.6 326.6 635.6 330.4 615.7 330.4" style="fill:#214593"/><rect x="221" width="516.7" height="220.4" style="fill:#214593"/><rect x="301.7" y="47.6" width="27.7" height="125.5" style="fill:#fff"/><polygon points="446.1 47.6 357.8 47.6 357.8 173.1 385.6 173.1 385.6 125.2 432.9 125.2 432.9 102.1 385.6 102.1 385.6 70.6 446.1 70.6 446.1 47.6" style="fill:#fff"/><path d="M495.8,129.5l16.4-46h.3l15.8,46Zm30.9-76.9H498.3L450.7,178.1h27.7l9.8-28.1h47l9.5,28.1h28.7Z" transform="translate(-14.4 -5)" style="fill:#fff"/><path d="M685.9,69a63.94,63.94,0,0,0-45.4-18.9,64.6,64.6,0,1,0,45.4,110.3l-17.3-17.3a39.19,39.19,0,0,1-28.1,11.7,39.7,39.7,0,1,1,28.1-67.7Z" transform="translate(-14.4 -5)" style="fill:#fff"/><polygon points="655.4 102.1 697 102.1 676.2 125.8 655.4 102.1" style="fill:#f9b03e"/><path d="M219.3,70.3,204.2,56.1H37.4V84.5H75.5A57.84,57.84,0,0,0,66,126.7a59.08,59.08,0,0,0,38.8,47l8.5-24.9a33.93,33.93,0,0,1-21.4-26.2,33.14,33.14,0,1,1,43.7,26.2l-9.1,17,17,8.2a59.39,59.39,0,0,0,40-65.6,57.43,57.43,0,0,0-9.5-24h29.9Z" transform="translate(-14.4 -5)" style="fill:#fff"/></svg>